<mxfile host="" modified="2021-02-01T18:08:09.789Z" agent="5.0 (Windows NT 6.2; Win64; x64) AppleWebKit/537.36 (KHTML, like Gecko) Chrome/84.0.4147.105 Safari/537.36" etag="trFPuTrB7a0912EBgP_P" version="13.7.9" type="embed"><diagram id="lg47yptuPZrOQLRWL7jT" name="Page-1"><mxGraphModel dx="1829" dy="1057" grid="1" gridSize="10" guides="1" tooltips="1" connect="1" arrows="1" fold="1" page="0" pageScale="1" pageWidth="827" pageHeight="1169" math="0" shadow="0"><root><mxCell id="0"/><mxCell id="1" parent="0"/><mxCell id="48" value="Robot" style="swimlane;startSize=20;horizontal=0;" parent="1" vertex="1"><mxGeometry x="-160" y="-100" width="1800" height="460" as="geometry"><mxRectangle x="-160" y="-100" width="30" height="50" as="alternateBounds"/></mxGeometry></mxCell><mxCell id="74" style="edgeStyle=orthogonalEdgeStyle;rounded=0;orthogonalLoop=1;jettySize=auto;html=1;entryX=0;entryY=0.5;entryDx=0;entryDy=0;" parent="48" source="70" target="73" edge="1"><mxGeometry relative="1" as="geometry"/></mxCell><mxCell id="70" value="" style="shape=mxgraph.bpmn.shape;html=1;verticalLabelPosition=bottom;labelBackgroundColor=#ffffff;verticalAlign=top;align=center;perimeter=ellipsePerimeter;outlineConnect=0;outline=standard;symbol=general;" parent="48" vertex="1"><mxGeometry x="70" y="210" width="50" height="50" as="geometry"/></mxCell><mxCell id="73" value="" style="shape=mxgraph.bpmn.shape;html=1;verticalLabelPosition=bottom;labelBackgroundColor=#ffffff;verticalAlign=top;align=center;perimeter=rhombusPerimeter;background=gateway;outlineConnect=0;outline=none;symbol=exclusiveGw;" parent="48" vertex="1"><mxGeometry x="160" y="210" width="50" height="50" as="geometry"/></mxCell><mxCell id="84" style="edgeStyle=orthogonalEdgeStyle;rounded=1;orthogonalLoop=1;jettySize=auto;html=1;entryX=0;entryY=0.5;entryDx=0;entryDy=0;" parent="48" source="76" target="83" edge="1"><mxGeometry relative="1" as="geometry"/></mxCell><mxCell id="76" value="Stop robot" style="html=1;whiteSpace=wrap;rounded=1;dropTarget=0;" parent="48" vertex="1"><mxGeometry x="330" y="360" width="120" height="80" as="geometry"/></mxCell><mxCell id="77" value="" style="html=1;shape=plus;outlineConnect=0;" parent="76" vertex="1"><mxGeometry x="0.5" y="1" width="14" height="14" relative="1" as="geometry"><mxPoint x="-7" y="-14" as="offset"/></mxGeometry></mxCell><mxCell id="78" value="Strategy.active == False" style="startArrow=diamondThin;startFill=0;startSize=14;endArrow=block;endFill=1;endSize=6;html=1;exitX=0.5;exitY=1;exitDx=0;exitDy=0;entryX=0;entryY=0.5;entryDx=0;entryDy=0;edgeStyle=orthogonalEdgeStyle;" parent="48" source="73" target="76" edge="1"><mxGeometry x="0.4386" width="100" relative="1" as="geometry"><mxPoint x="360" y="195" as="sourcePoint"/><mxPoint x="460" y="195" as="targetPoint"/><mxPoint as="offset"/></mxGeometry></mxCell><mxCell id="86" style="edgeStyle=orthogonalEdgeStyle;rounded=1;orthogonalLoop=1;jettySize=auto;html=1;entryX=0;entryY=0.5;entryDx=0;entryDy=0;" parent="48" source="80" target="85" edge="1"><mxGeometry relative="1" as="geometry"/></mxCell><mxCell id="80" value="Check if robot exists" style="html=1;whiteSpace=wrap;rounded=1;dropTarget=0;" parent="48" vertex="1"><mxGeometry x="330" y="130" width="120" height="80" as="geometry"/></mxCell><mxCell id="82" value="" style="startArrow=dash;startSize=8;endArrow=block;endFill=1;endSize=6;html=1;exitX=0.5;exitY=0;exitDx=0;exitDy=0;entryX=0;entryY=0.5;entryDx=0;entryDy=0;edgeStyle=orthogonalEdgeStyle;" parent="48" source="73" target="80" edge="1"><mxGeometry width="100" relative="1" as="geometry"><mxPoint x="360" y="195" as="sourcePoint"/><mxPoint x="460" y="195" as="targetPoint"/></mxGeometry></mxCell><mxCell id="83" value="" style="shape=mxgraph.bpmn.shape;html=1;verticalLabelPosition=bottom;labelBackgroundColor=#ffffff;verticalAlign=top;align=center;perimeter=ellipsePerimeter;outlineConnect=0;outline=end;symbol=general;" parent="48" vertex="1"><mxGeometry x="1670" y="375" width="50" height="50" as="geometry"/></mxCell><mxCell id="91" style="edgeStyle=orthogonalEdgeStyle;rounded=1;orthogonalLoop=1;jettySize=auto;html=1;startArrow=dash;startFill=0;entryX=0;entryY=0.5;entryDx=0;entryDy=0;" parent="48" source="85" target="92" edge="1"><mxGeometry relative="1" as="geometry"><mxPoint x="850" y="170" as="targetPoint"/></mxGeometry></mxCell><mxCell id="85" value="" style="shape=mxgraph.bpmn.shape;html=1;verticalLabelPosition=bottom;labelBackgroundColor=#ffffff;verticalAlign=top;align=center;perimeter=rhombusPerimeter;background=gateway;outlineConnect=0;outline=none;symbol=exclusiveGw;" parent="48" vertex="1"><mxGeometry x="500" y="145" width="50" height="50" as="geometry"/></mxCell><mxCell id="90" style="edgeStyle=orthogonalEdgeStyle;rounded=1;orthogonalLoop=1;jettySize=auto;html=1;entryX=0;entryY=0.5;entryDx=0;entryDy=0;exitX=1;exitY=0.5;exitDx=0;exitDy=0;" parent="48" source="249" target="83" edge="1"><mxGeometry relative="1" as="geometry"><mxPoint x="875" y="195" as="targetPoint"/><Array as="points"><mxPoint x="1042" y="300"/><mxPoint x="1042" y="400"/></Array></mxGeometry></mxCell><mxCell id="87" value="Create robot" style="shape=ext;rounded=1;html=1;whiteSpace=wrap;" parent="48" vertex="1"><mxGeometry x="660" y="260" width="120" height="80" as="geometry"/></mxCell><mxCell id="88" value="Strategy.robot is Null" style="startArrow=diamondThin;startFill=0;startSize=14;endArrow=block;endFill=1;endSize=6;html=1;exitX=0.5;exitY=1;exitDx=0;exitDy=0;entryX=0;entryY=0.5;entryDx=0;entryDy=0;edgeStyle=orthogonalEdgeStyle;" parent="48" source="85" target="87" edge="1"><mxGeometry x="0.2242" width="100" relative="1" as="geometry"><mxPoint x="195" y="270" as="sourcePoint"/><mxPoint x="340" y="325" as="targetPoint"/><mxPoint as="offset"/></mxGeometry></mxCell><mxCell id="95" style="edgeStyle=orthogonalEdgeStyle;rounded=1;orthogonalLoop=1;jettySize=auto;html=1;entryX=0;entryY=0.5;entryDx=0;entryDy=0;startArrow=none;startFill=0;" parent="48" source="92" target="94" edge="1"><mxGeometry relative="1" as="geometry"/></mxCell><mxCell id="92" value="Check robot orders" style="shape=ext;rounded=1;html=1;whiteSpace=wrap;" parent="48" vertex="1"><mxGeometry x="970" y="130" width="120" height="80" as="geometry"/></mxCell><mxCell id="97" style="edgeStyle=orthogonalEdgeStyle;rounded=1;orthogonalLoop=1;jettySize=auto;html=1;entryX=0.5;entryY=0;entryDx=0;entryDy=0;startArrow=dash;startFill=0;exitX=0.5;exitY=1;exitDx=0;exitDy=0;" parent="48" source="94" target="83" edge="1"><mxGeometry relative="1" as="geometry"/></mxCell><mxCell id="94" value="" style="shape=mxgraph.bpmn.shape;html=1;verticalLabelPosition=bottom;labelBackgroundColor=#ffffff;verticalAlign=top;align=center;perimeter=rhombusPerimeter;background=gateway;outlineConnect=0;outline=none;symbol=exclusiveGw;" parent="48" vertex="1"><mxGeometry x="1220" y="225" width="50" height="50" as="geometry"/></mxCell><mxCell id="112" style="edgeStyle=orthogonalEdgeStyle;rounded=1;orthogonalLoop=1;jettySize=auto;html=1;entryX=1;entryY=0.5;entryDx=0;entryDy=0;startArrow=diamondThin;startFill=0;" parent="48" source="98" target="83" edge="1"><mxGeometry relative="1" as="geometry"/></mxCell><mxCell id="98" value="Current rate step" style="shape=ext;rounded=1;html=1;whiteSpace=wrap;" parent="48" vertex="1"><mxGeometry x="1460" y="210" width="120" height="80" as="geometry"/></mxCell><mxCell id="100" value="Both orders not found&lt;br&gt;or doesn't exist" style="startArrow=diamondThin;startFill=0;startSize=14;endArrow=block;endFill=1;endSize=6;html=1;exitX=1;exitY=0.5;exitDx=0;exitDy=0;entryX=0;entryY=0.5;entryDx=0;entryDy=0;edgeStyle=orthogonalEdgeStyle;" parent="48" source="94" target="98" edge="1"><mxGeometry width="100" relative="1" as="geometry"><mxPoint x="1270" y="130" as="sourcePoint"/><mxPoint x="1395" y="170" as="targetPoint"/></mxGeometry></mxCell><mxCell id="110" style="edgeStyle=orthogonalEdgeStyle;rounded=1;orthogonalLoop=1;jettySize=auto;html=1;entryX=1;entryY=0.5;entryDx=0;entryDy=0;startArrow=diamondThin;startFill=0;" parent="48" source="101" target="83" edge="1"><mxGeometry relative="1" as="geometry"/></mxCell><mxCell id="101" value="Step down" style="shape=ext;rounded=1;html=1;whiteSpace=wrap;" parent="48" vertex="1"><mxGeometry x="1460" y="115" width="120" height="80" as="geometry"/></mxCell><mxCell id="109" style="edgeStyle=orthogonalEdgeStyle;rounded=1;orthogonalLoop=1;jettySize=auto;html=1;entryX=1;entryY=0.5;entryDx=0;entryDy=0;startArrow=diamondThin;startFill=0;" parent="48" source="102" target="83" edge="1"><mxGeometry relative="1" as="geometry"/></mxCell><mxCell id="102" value="Step up" style="shape=ext;rounded=1;html=1;whiteSpace=wrap;" parent="48" vertex="1"><mxGeometry x="1460" y="20" width="120" height="80" as="geometry"/></mxCell><mxCell id="103" value="Only buy order not found&lt;br&gt;or doesn't exist" style="startArrow=diamondThin;startFill=0;startSize=14;endArrow=block;endFill=1;endSize=6;html=1;exitX=0.5;exitY=0;exitDx=0;exitDy=0;entryX=0;entryY=0.5;entryDx=0;entryDy=0;edgeStyle=orthogonalEdgeStyle;" parent="48" source="94" target="101" edge="1"><mxGeometry x="0.2982" width="100" relative="1" as="geometry"><mxPoint x="1280" y="260" as="sourcePoint"/><mxPoint x="1470" y="260" as="targetPoint"/><mxPoint as="offset"/></mxGeometry></mxCell><mxCell id="104" value="Only sell order not found&lt;br&gt;or doesn't exist" style="startArrow=diamondThin;startFill=0;startSize=14;endArrow=block;endFill=1;endSize=6;html=1;exitX=0.5;exitY=0;exitDx=0;exitDy=0;entryX=0;entryY=0.5;entryDx=0;entryDy=0;edgeStyle=orthogonalEdgeStyle;" parent="48" source="94" target="102" edge="1"><mxGeometry x="0.4737" width="100" relative="1" as="geometry"><mxPoint x="1255" y="235" as="sourcePoint"/><mxPoint x="1470" y="165" as="targetPoint"/><mxPoint as="offset"/></mxGeometry></mxCell><mxCell id="105" value="" style="shape=plus;html=1;outlineConnect=0;" parent="48" vertex="1"><mxGeometry x="1513" y="86" width="14" height="14" as="geometry"/></mxCell><mxCell id="106" value="" style="shape=plus;html=1;outlineConnect=0;" parent="48" vertex="1"><mxGeometry x="1513" y="181" width="14" height="14" as="geometry"/></mxCell><mxCell id="107" value="" style="shape=plus;html=1;outlineConnect=0;" parent="48" vertex="1"><mxGeometry x="1513" y="275" width="14" height="14" as="geometry"/></mxCell><mxCell id="249" value="Start robot" style="shape=ext;rounded=1;html=1;whiteSpace=wrap;" vertex="1" parent="48"><mxGeometry x="840" y="260" width="120" height="80" as="geometry"/></mxCell><mxCell id="250" style="edgeStyle=orthogonalEdgeStyle;rounded=1;orthogonalLoop=1;jettySize=auto;html=1;entryX=0;entryY=0.5;entryDx=0;entryDy=0;exitX=1;exitY=0.5;exitDx=0;exitDy=0;" edge="1" parent="48" source="87" target="249"><mxGeometry relative="1" as="geometry"><mxPoint x="620" y="159.9999999999999" as="sourcePoint"/><mxPoint x="1510.0000000000018" y="299.9999999999999" as="targetPoint"/><Array as="points"/></mxGeometry></mxCell><mxCell id="251" value="" style="shape=plus;html=1;outlineConnect=0;" vertex="1" parent="48"><mxGeometry x="893" y="326" width="14" height="14" as="geometry"/></mxCell><mxCell id="50" value="Kraken_bot" style="swimlane;startSize=20;horizontal=0;" parent="1" vertex="1"><mxGeometry x="-160" y="-340" width="980" height="170" as="geometry"><mxRectangle x="-150" y="-140" width="30" height="50" as="alternateBounds"/></mxGeometry></mxCell><mxCell id="62" style="edgeStyle=orthogonalEdgeStyle;rounded=0;orthogonalLoop=1;jettySize=auto;html=1;entryX=0;entryY=0.5;entryDx=0;entryDy=0;" parent="50" source="238" target="57" edge="1"><mxGeometry relative="1" as="geometry"/></mxCell><mxCell id="56" value="Load list of Strategies" style="shape=ext;rounded=1;html=1;whiteSpace=wrap;" parent="50" vertex="1"><mxGeometry x="160" y="30" width="120" height="80" as="geometry"/></mxCell><mxCell id="65" style="edgeStyle=orthogonalEdgeStyle;rounded=0;orthogonalLoop=1;jettySize=auto;html=1;entryX=0;entryY=0.5;entryDx=0;entryDy=0;" parent="50" source="57" target="63" edge="1"><mxGeometry relative="1" as="geometry"/></mxCell><mxCell id="57" value="Run a robot for every strategy" style="html=1;whiteSpace=wrap;rounded=1;dropTarget=0;" parent="50" vertex="1"><mxGeometry x="640" y="30" width="120" height="80" as="geometry"/></mxCell><mxCell id="58" value="" style="html=1;shape=plus;outlineConnect=0;" parent="57" vertex="1"><mxGeometry x="0.5" y="1" width="14" height="14" relative="1" as="geometry"><mxPoint x="-7" y="-14" as="offset"/></mxGeometry></mxCell><mxCell id="61" style="edgeStyle=orthogonalEdgeStyle;rounded=0;orthogonalLoop=1;jettySize=auto;html=1;entryX=0;entryY=0.5;entryDx=0;entryDy=0;" parent="50" source="59" target="56" edge="1"><mxGeometry relative="1" as="geometry"/></mxCell><mxCell id="59" value="" style="shape=mxgraph.bpmn.shape;html=1;verticalLabelPosition=bottom;labelBackgroundColor=#ffffff;verticalAlign=top;align=center;perimeter=ellipsePerimeter;outlineConnect=0;outline=standard;symbol=general;" parent="50" vertex="1"><mxGeometry x="60" y="45" width="50" height="50" as="geometry"/></mxCell><mxCell id="60" value="" style="shape=parallelMarker;html=1;outlineConnect=0;" parent="50" vertex="1"><mxGeometry x="710" y="95" width="14" height="14" as="geometry"/></mxCell><mxCell id="63" value="Wait 5 seconds" style="html=1;whiteSpace=wrap;rounded=1;dropTarget=0;" parent="50" vertex="1"><mxGeometry x="810" y="30" width="120" height="80" as="geometry"/></mxCell><mxCell id="64" value="" style="shape=mxgraph.bpmn.timer_start;perimeter=ellipsePerimeter;html=1;verticalLabelPosition=bottom;verticalAlign=top;outlineConnect=0;" parent="63" vertex="1"><mxGeometry x="1" y="1" width="30" height="30" relative="1" as="geometry"><mxPoint x="-40" y="-15" as="offset"/></mxGeometry></mxCell><mxCell id="66" style="edgeStyle=orthogonalEdgeStyle;rounded=1;orthogonalLoop=1;jettySize=auto;html=1;entryX=0.5;entryY=1;entryDx=0;entryDy=0;exitX=0.5;exitY=1;exitDx=0;exitDy=0;exitPerimeter=0;" parent="50" source="64" target="56" edge="1"><mxGeometry relative="1" as="geometry"/></mxCell><mxCell id="236" value="Get list of trading prices" style="shape=ext;rounded=1;html=1;whiteSpace=wrap;" parent="50" vertex="1"><mxGeometry x="320" y="30" width="120" height="80" as="geometry"/></mxCell><mxCell id="237" style="edgeStyle=orthogonalEdgeStyle;rounded=0;orthogonalLoop=1;jettySize=auto;html=1;entryX=0;entryY=0.5;entryDx=0;entryDy=0;" parent="50" source="56" target="236" edge="1"><mxGeometry relative="1" as="geometry"><mxPoint x="120" y="-270" as="sourcePoint"/><mxPoint x="510" y="-270" as="targetPoint"/></mxGeometry></mxCell><mxCell id="238" value="Get list of open orders" style="shape=ext;rounded=1;html=1;whiteSpace=wrap;" parent="50" vertex="1"><mxGeometry x="480" y="30" width="120" height="80" as="geometry"/></mxCell><mxCell id="239" style="edgeStyle=orthogonalEdgeStyle;rounded=0;orthogonalLoop=1;jettySize=auto;html=1;entryX=0;entryY=0.5;entryDx=0;entryDy=0;" parent="50" source="236" target="238" edge="1"><mxGeometry relative="1" as="geometry"><mxPoint x="280" y="-270" as="sourcePoint"/><mxPoint x="510" y="-270" as="targetPoint"/></mxGeometry></mxCell><mxCell id="148" value="Stop robot" style="swimlane;startSize=20;horizontal=0;" parent="1" vertex="1"><mxGeometry x="-160" y="400" width="1020" height="200" as="geometry"/></mxCell><mxCell id="149" value="" style="shape=mxgraph.bpmn.shape;html=1;verticalLabelPosition=bottom;labelBackgroundColor=#ffffff;verticalAlign=top;align=center;perimeter=ellipsePerimeter;outlineConnect=0;outline=standard;symbol=general;" parent="148" vertex="1"><mxGeometry x="70" y="55" width="50" height="50" as="geometry"/></mxCell><mxCell id="150" value="" style="shape=mxgraph.bpmn.shape;html=1;verticalLabelPosition=bottom;labelBackgroundColor=#ffffff;verticalAlign=top;align=center;perimeter=ellipsePerimeter;outlineConnect=0;outline=end;symbol=general;" parent="148" vertex="1"><mxGeometry x="910" y="55" width="50" height="50" as="geometry"/></mxCell><mxCell id="155" style="edgeStyle=orthogonalEdgeStyle;rounded=1;orthogonalLoop=1;jettySize=auto;html=1;entryX=0;entryY=0.5;entryDx=0;entryDy=0;startArrow=none;startFill=0;" parent="148" source="151" target="152" edge="1"><mxGeometry relative="1" as="geometry"/></mxCell><mxCell id="151" value="Cancel sell order" style="shape=ext;rounded=1;html=1;whiteSpace=wrap;" parent="148" vertex="1"><mxGeometry x="430" y="40" width="120" height="80" as="geometry"/></mxCell><mxCell id="156" style="edgeStyle=orthogonalEdgeStyle;rounded=1;orthogonalLoop=1;jettySize=auto;html=1;startArrow=none;startFill=0;" parent="148" source="152" target="153" edge="1"><mxGeometry relative="1" as="geometry"/></mxCell><mxCell id="152" value="Cancel buy order" style="shape=ext;rounded=1;html=1;whiteSpace=wrap;" parent="148" vertex="1"><mxGeometry x="590" y="40" width="120" height="80" as="geometry"/></mxCell><mxCell id="157" style="edgeStyle=orthogonalEdgeStyle;rounded=1;orthogonalLoop=1;jettySize=auto;html=1;entryX=0;entryY=0.5;entryDx=0;entryDy=0;startArrow=none;startFill=0;" parent="148" source="153" target="150" edge="1"><mxGeometry relative="1" as="geometry"/></mxCell><mxCell id="153" value="Delete robot" style="shape=ext;rounded=1;html=1;whiteSpace=wrap;" parent="148" vertex="1"><mxGeometry x="750" y="40" width="120" height="80" as="geometry"/></mxCell><mxCell id="277" value="Check if robot exists" style="shape=ext;rounded=1;html=1;whiteSpace=wrap;" vertex="1" parent="148"><mxGeometry x="160" y="40" width="120" height="80" as="geometry"/></mxCell><mxCell id="278" style="edgeStyle=orthogonalEdgeStyle;rounded=1;orthogonalLoop=1;jettySize=auto;html=1;entryX=0;entryY=0.5;entryDx=0;entryDy=0;startArrow=none;startFill=0;" edge="1" parent="148" source="149" target="277"><mxGeometry relative="1" as="geometry"><mxPoint x="-40" y="600" as="sourcePoint"/><mxPoint x="160" y="600" as="targetPoint"/></mxGeometry></mxCell><mxCell id="279" value="" style="shape=mxgraph.bpmn.shape;html=1;verticalLabelPosition=bottom;labelBackgroundColor=#ffffff;verticalAlign=top;align=center;perimeter=rhombusPerimeter;background=gateway;outlineConnect=0;outline=none;symbol=exclusiveGw;" vertex="1" parent="148"><mxGeometry x="325" y="55" width="50" height="50" as="geometry"/></mxCell><mxCell id="280" style="edgeStyle=orthogonalEdgeStyle;rounded=1;orthogonalLoop=1;jettySize=auto;html=1;entryX=0;entryY=0.5;entryDx=0;entryDy=0;startArrow=none;startFill=0;" edge="1" parent="148" source="277" target="279"><mxGeometry relative="1" as="geometry"><mxPoint x="120" y="600" as="sourcePoint"/><mxPoint x="270" y="600" as="targetPoint"/></mxGeometry></mxCell><mxCell id="281" value="" style="startArrow=dash;startSize=8;endArrow=block;endFill=1;endSize=6;html=1;exitX=1;exitY=0.5;exitDx=0;exitDy=0;entryX=0;entryY=0.5;entryDx=0;entryDy=0;" edge="1" parent="148" source="279" target="151"><mxGeometry width="100" relative="1" as="geometry"><mxPoint x="380" y="150" as="sourcePoint"/><mxPoint x="480" y="150" as="targetPoint"/></mxGeometry></mxCell><mxCell id="282" value="Strategy.robot is Null" style="startArrow=diamondThin;startFill=0;startSize=14;endArrow=block;endFill=1;endSize=6;html=1;edgeStyle=orthogonalEdgeStyle;exitX=0.5;exitY=1;exitDx=0;exitDy=0;entryX=0.5;entryY=1;entryDx=0;entryDy=0;" edge="1" parent="148" source="279" target="150"><mxGeometry width="100" relative="1" as="geometry"><mxPoint x="570" y="150" as="sourcePoint"/><mxPoint x="670" y="150" as="targetPoint"/><Array as="points"><mxPoint x="350" y="160"/><mxPoint x="935" y="160"/></Array></mxGeometry></mxCell><mxCell id="158" value="Step up" style="swimlane;startSize=20;horizontal=0;" parent="1" vertex="1"><mxGeometry x="-160" y="640" width="1180" height="200" as="geometry"/></mxCell><mxCell id="172" style="edgeStyle=orthogonalEdgeStyle;rounded=1;orthogonalLoop=1;jettySize=auto;html=1;startArrow=none;startFill=0;" parent="158" source="159" target="167" edge="1"><mxGeometry relative="1" as="geometry"/></mxCell><mxCell id="159" value="" style="shape=mxgraph.bpmn.shape;html=1;verticalLabelPosition=bottom;labelBackgroundColor=#ffffff;verticalAlign=top;align=center;perimeter=ellipsePerimeter;outlineConnect=0;outline=standard;symbol=general;" parent="158" vertex="1"><mxGeometry x="70" y="55" width="50" height="50" as="geometry"/></mxCell><mxCell id="160" value="" style="shape=mxgraph.bpmn.shape;html=1;verticalLabelPosition=bottom;labelBackgroundColor=#ffffff;verticalAlign=top;align=center;perimeter=ellipsePerimeter;outlineConnect=0;outline=end;symbol=general;" parent="158" vertex="1"><mxGeometry x="1080" y="55" width="50" height="50" as="geometry"/></mxCell><mxCell id="173" style="edgeStyle=orthogonalEdgeStyle;rounded=1;orthogonalLoop=1;jettySize=auto;html=1;startArrow=none;startFill=0;" parent="158" source="167" target="168" edge="1"><mxGeometry relative="1" as="geometry"/></mxCell><mxCell id="167" value="Cancel buy order" style="shape=ext;rounded=1;html=1;whiteSpace=wrap;" parent="158" vertex="1"><mxGeometry x="160" y="40" width="120" height="80" as="geometry"/></mxCell><mxCell id="193" style="edgeStyle=orthogonalEdgeStyle;rounded=1;orthogonalLoop=1;jettySize=auto;html=1;entryX=0;entryY=0.5;entryDx=0;entryDy=0;startArrow=none;startFill=0;" parent="158" source="168" target="192" edge="1"><mxGeometry relative="1" as="geometry"/></mxCell><mxCell id="168" value="Calculate new step rate" style="shape=ext;rounded=1;html=1;whiteSpace=wrap;" parent="158" vertex="1"><mxGeometry x="320" y="40" width="120" height="80" as="geometry"/></mxCell><mxCell id="175" style="edgeStyle=orthogonalEdgeStyle;rounded=1;orthogonalLoop=1;jettySize=auto;html=1;startArrow=none;startFill=0;" parent="158" source="169" target="170" edge="1"><mxGeometry relative="1" as="geometry"/></mxCell><mxCell id="169" value="Calculate sell and buy prices" style="shape=ext;rounded=1;html=1;whiteSpace=wrap;" parent="158" vertex="1"><mxGeometry x="600" y="40" width="120" height="80" as="geometry"/></mxCell><mxCell id="176" style="edgeStyle=orthogonalEdgeStyle;rounded=1;orthogonalLoop=1;jettySize=auto;html=1;startArrow=none;startFill=0;" parent="158" source="170" target="171" edge="1"><mxGeometry relative="1" as="geometry"/></mxCell><mxCell id="170" value="Publish sell and buy orders" style="shape=ext;rounded=1;html=1;whiteSpace=wrap;" parent="158" vertex="1"><mxGeometry x="760" y="40" width="120" height="80" as="geometry"/></mxCell><mxCell id="177" style="edgeStyle=orthogonalEdgeStyle;rounded=1;orthogonalLoop=1;jettySize=auto;html=1;startArrow=none;startFill=0;" parent="158" source="171" target="160" edge="1"><mxGeometry relative="1" as="geometry"/></mxCell><mxCell id="171" value="Update robot" style="shape=ext;rounded=1;html=1;whiteSpace=wrap;" parent="158" vertex="1"><mxGeometry x="920" y="40" width="120" height="80" as="geometry"/></mxCell><mxCell id="192" value="" style="shape=mxgraph.bpmn.shape;html=1;verticalLabelPosition=bottom;labelBackgroundColor=#ffffff;verticalAlign=top;align=center;perimeter=rhombusPerimeter;background=gateway;outlineConnect=0;outline=none;symbol=exclusiveGw;" parent="158" vertex="1"><mxGeometry x="490" y="55" width="50" height="50" as="geometry"/></mxCell><mxCell id="195" value="" style="startArrow=dash;startSize=8;endArrow=block;endFill=1;endSize=6;html=1;exitX=1;exitY=0.5;exitDx=0;exitDy=0;entryX=0;entryY=0.5;entryDx=0;entryDy=0;" parent="158" source="192" target="169" edge="1"><mxGeometry width="100" relative="1" as="geometry"><mxPoint x="540" y="210" as="sourcePoint"/><mxPoint x="640" y="210" as="targetPoint"/></mxGeometry></mxCell><mxCell id="196" value="New step rate &amp;gt; Strategy.ceiling" style="startArrow=diamondThin;startFill=0;startSize=14;endArrow=block;endFill=1;endSize=6;html=1;exitX=0.5;exitY=1;exitDx=0;exitDy=0;entryX=0.5;entryY=1;entryDx=0;entryDy=0;edgeStyle=orthogonalEdgeStyle;" parent="158" source="192" target="160" edge="1"><mxGeometry width="100" relative="1" as="geometry"><mxPoint x="780" y="210" as="sourcePoint"/><mxPoint x="880" y="210" as="targetPoint"/><Array as="points"><mxPoint x="515" y="160"/><mxPoint x="1105" y="160"/></Array></mxGeometry></mxCell><mxCell id="164" value="Current rate step" style="swimlane;startSize=20;horizontal=0;" parent="1" vertex="1"><mxGeometry x="-160" y="1120" width="940" height="360" as="geometry"/></mxCell><mxCell id="224" style="edgeStyle=orthogonalEdgeStyle;rounded=1;orthogonalLoop=1;jettySize=auto;html=1;startArrow=none;startFill=0;" parent="164" source="165" target="214" edge="1"><mxGeometry relative="1" as="geometry"/></mxCell><mxCell id="165" value="" style="shape=mxgraph.bpmn.shape;html=1;verticalLabelPosition=bottom;labelBackgroundColor=#ffffff;verticalAlign=top;align=center;perimeter=ellipsePerimeter;outlineConnect=0;outline=standard;symbol=general;" parent="164" vertex="1"><mxGeometry x="70" y="55" width="50" height="50" as="geometry"/></mxCell><mxCell id="166" value="" style="shape=mxgraph.bpmn.shape;html=1;verticalLabelPosition=bottom;labelBackgroundColor=#ffffff;verticalAlign=top;align=center;perimeter=ellipsePerimeter;outlineConnect=0;outline=end;symbol=general;" parent="164" vertex="1"><mxGeometry x="840" y="55" width="50" height="50" as="geometry"/></mxCell><mxCell id="225" style="edgeStyle=orthogonalEdgeStyle;rounded=1;orthogonalLoop=1;jettySize=auto;html=1;startArrow=none;startFill=0;" parent="164" source="214" target="217" edge="1"><mxGeometry relative="1" as="geometry"/></mxCell><mxCell id="214" value="Get current rate" style="shape=ext;rounded=1;html=1;whiteSpace=wrap;" parent="164" vertex="1"><mxGeometry x="160" y="40" width="120" height="80" as="geometry"/></mxCell><mxCell id="217" value="" style="shape=mxgraph.bpmn.shape;html=1;verticalLabelPosition=bottom;labelBackgroundColor=#ffffff;verticalAlign=top;align=center;perimeter=rhombusPerimeter;background=gateway;outlineConnect=0;outline=none;symbol=exclusiveGw;" parent="164" vertex="1"><mxGeometry x="330" y="55" width="50" height="50" as="geometry"/></mxCell><mxCell id="240" value="" style="startArrow=dash;startFill=0;startSize=14;endArrow=block;endFill=1;endSize=6;html=1;exitX=1;exitY=0.5;exitDx=0;exitDy=0;entryX=0;entryY=0.5;entryDx=0;entryDy=0;" edge="1" parent="164" source="217" target="166"><mxGeometry width="100" relative="1" as="geometry"><mxPoint x="434" y="76" as="sourcePoint"/><mxPoint x="613" y="80" as="targetPoint"/></mxGeometry></mxCell><mxCell id="246" style="edgeStyle=orthogonalEdgeStyle;rounded=0;orthogonalLoop=1;jettySize=auto;html=1;entryX=0.5;entryY=1;entryDx=0;entryDy=0;startArrow=none;startFill=0;" edge="1" parent="164" source="242" target="166"><mxGeometry relative="1" as="geometry"/></mxCell><mxCell id="242" value="Step up" style="shape=ext;rounded=1;html=1;whiteSpace=wrap;" vertex="1" parent="164"><mxGeometry x="640" y="120" width="120" height="80" as="geometry"/></mxCell><mxCell id="248" style="edgeStyle=orthogonalEdgeStyle;rounded=0;orthogonalLoop=1;jettySize=auto;html=1;entryX=0.5;entryY=1;entryDx=0;entryDy=0;startArrow=none;startFill=0;" edge="1" parent="164" source="243" target="166"><mxGeometry relative="1" as="geometry"/></mxCell><mxCell id="243" value="Step down" style="shape=ext;rounded=1;html=1;whiteSpace=wrap;" vertex="1" parent="164"><mxGeometry x="640" y="240" width="120" height="80" as="geometry"/></mxCell><mxCell id="244" value="Current rate &amp;gt; Robot.current_step_price" style="startArrow=diamondThin;startFill=0;startSize=14;endArrow=block;endFill=1;endSize=6;html=1;exitX=0.5;exitY=1;exitDx=0;exitDy=0;entryX=0;entryY=0.5;entryDx=0;entryDy=0;edgeStyle=orthogonalEdgeStyle;" edge="1" parent="164" source="217" target="242"><mxGeometry x="0.2607" width="100" relative="1" as="geometry"><mxPoint x="390" y="90" as="sourcePoint"/><mxPoint x="623" y="90" as="targetPoint"/><mxPoint as="offset"/></mxGeometry></mxCell><mxCell id="245" value="Current rate &amp;lt; Robot.current_step_price" style="startArrow=diamondThin;startFill=0;startSize=14;endArrow=block;endFill=1;endSize=6;html=1;entryX=0;entryY=0.5;entryDx=0;entryDy=0;edgeStyle=orthogonalEdgeStyle;exitX=0.5;exitY=1;exitDx=0;exitDy=0;" edge="1" parent="164" source="217" target="243"><mxGeometry x="0.4407" width="100" relative="1" as="geometry"><mxPoint x="311" y="228" as="sourcePoint"/><mxPoint x="623" y="206" as="targetPoint"/><mxPoint as="offset"/></mxGeometry></mxCell><mxCell id="197" value="Step down" style="swimlane;startSize=20;horizontal=0;" parent="1" vertex="1"><mxGeometry x="-160" y="880" width="1180" height="200" as="geometry"/></mxCell><mxCell id="198" style="edgeStyle=orthogonalEdgeStyle;rounded=1;orthogonalLoop=1;jettySize=auto;html=1;startArrow=none;startFill=0;" parent="197" source="199" target="202" edge="1"><mxGeometry relative="1" as="geometry"/></mxCell><mxCell id="199" value="" style="shape=mxgraph.bpmn.shape;html=1;verticalLabelPosition=bottom;labelBackgroundColor=#ffffff;verticalAlign=top;align=center;perimeter=ellipsePerimeter;outlineConnect=0;outline=standard;symbol=general;" parent="197" vertex="1"><mxGeometry x="70" y="55" width="50" height="50" as="geometry"/></mxCell><mxCell id="200" value="" style="shape=mxgraph.bpmn.shape;html=1;verticalLabelPosition=bottom;labelBackgroundColor=#ffffff;verticalAlign=top;align=center;perimeter=ellipsePerimeter;outlineConnect=0;outline=end;symbol=general;" parent="197" vertex="1"><mxGeometry x="1080" y="55" width="50" height="50" as="geometry"/></mxCell><mxCell id="201" style="edgeStyle=orthogonalEdgeStyle;rounded=1;orthogonalLoop=1;jettySize=auto;html=1;startArrow=none;startFill=0;" parent="197" source="202" target="204" edge="1"><mxGeometry relative="1" as="geometry"/></mxCell><mxCell id="202" value="Cancel sell order" style="shape=ext;rounded=1;html=1;whiteSpace=wrap;" parent="197" vertex="1"><mxGeometry x="160" y="40" width="120" height="80" as="geometry"/></mxCell><mxCell id="203" style="edgeStyle=orthogonalEdgeStyle;rounded=1;orthogonalLoop=1;jettySize=auto;html=1;entryX=0;entryY=0.5;entryDx=0;entryDy=0;startArrow=none;startFill=0;" parent="197" source="204" target="211" edge="1"><mxGeometry relative="1" as="geometry"/></mxCell><mxCell id="204" value="Calculate new step rate" style="shape=ext;rounded=1;html=1;whiteSpace=wrap;" parent="197" vertex="1"><mxGeometry x="320" y="40" width="120" height="80" as="geometry"/></mxCell><mxCell id="205" style="edgeStyle=orthogonalEdgeStyle;rounded=1;orthogonalLoop=1;jettySize=auto;html=1;startArrow=none;startFill=0;" parent="197" source="206" target="208" edge="1"><mxGeometry relative="1" as="geometry"/></mxCell><mxCell id="206" value="Calculate sell and buy prices" style="shape=ext;rounded=1;html=1;whiteSpace=wrap;" parent="197" vertex="1"><mxGeometry x="600" y="40" width="120" height="80" as="geometry"/></mxCell><mxCell id="207" style="edgeStyle=orthogonalEdgeStyle;rounded=1;orthogonalLoop=1;jettySize=auto;html=1;startArrow=none;startFill=0;" parent="197" source="208" target="210" edge="1"><mxGeometry relative="1" as="geometry"/></mxCell><mxCell id="208" value="Publish sell and buy orders" style="shape=ext;rounded=1;html=1;whiteSpace=wrap;" parent="197" vertex="1"><mxGeometry x="760" y="40" width="120" height="80" as="geometry"/></mxCell><mxCell id="209" style="edgeStyle=orthogonalEdgeStyle;rounded=1;orthogonalLoop=1;jettySize=auto;html=1;startArrow=none;startFill=0;" parent="197" source="210" target="200" edge="1"><mxGeometry relative="1" as="geometry"/></mxCell><mxCell id="210" value="Update robot" style="shape=ext;rounded=1;html=1;whiteSpace=wrap;" parent="197" vertex="1"><mxGeometry x="920" y="40" width="120" height="80" as="geometry"/></mxCell><mxCell id="211" value="" style="shape=mxgraph.bpmn.shape;html=1;verticalLabelPosition=bottom;labelBackgroundColor=#ffffff;verticalAlign=top;align=center;perimeter=rhombusPerimeter;background=gateway;outlineConnect=0;outline=none;symbol=exclusiveGw;" parent="197" vertex="1"><mxGeometry x="490" y="55" width="50" height="50" as="geometry"/></mxCell><mxCell id="212" value="" style="startArrow=dash;startSize=8;endArrow=block;endFill=1;endSize=6;html=1;exitX=1;exitY=0.5;exitDx=0;exitDy=0;entryX=0;entryY=0.5;entryDx=0;entryDy=0;" parent="197" source="211" target="206" edge="1"><mxGeometry width="100" relative="1" as="geometry"><mxPoint x="540" y="210" as="sourcePoint"/><mxPoint x="640" y="210" as="targetPoint"/></mxGeometry></mxCell><mxCell id="213" value="New step rate &amp;gt; Strategy.ceiling" style="startArrow=diamondThin;startFill=0;startSize=14;endArrow=block;endFill=1;endSize=6;html=1;exitX=0.5;exitY=1;exitDx=0;exitDy=0;entryX=0.5;entryY=1;entryDx=0;entryDy=0;edgeStyle=orthogonalEdgeStyle;" parent="197" source="211" target="200" edge="1"><mxGeometry width="100" relative="1" as="geometry"><mxPoint x="780" y="210" as="sourcePoint"/><mxPoint x="880" y="210" as="targetPoint"/><Array as="points"><mxPoint x="515" y="160"/><mxPoint x="1105" y="160"/></Array></mxGeometry></mxCell><mxCell id="252" value="Start robot" style="swimlane;startSize=20;horizontal=0;" vertex="1" parent="1"><mxGeometry x="-160" y="1520" width="1200" height="200" as="geometry"/></mxCell><mxCell id="253" style="edgeStyle=orthogonalEdgeStyle;rounded=1;orthogonalLoop=1;jettySize=auto;html=1;startArrow=none;startFill=0;" edge="1" parent="252" source="254" target="257"><mxGeometry relative="1" as="geometry"/></mxCell><mxCell id="254" value="" style="shape=mxgraph.bpmn.shape;html=1;verticalLabelPosition=bottom;labelBackgroundColor=#ffffff;verticalAlign=top;align=center;perimeter=ellipsePerimeter;outlineConnect=0;outline=standard;symbol=general;" vertex="1" parent="252"><mxGeometry x="70" y="55" width="50" height="50" as="geometry"/></mxCell><mxCell id="255" value="" style="shape=mxgraph.bpmn.shape;html=1;verticalLabelPosition=bottom;labelBackgroundColor=#ffffff;verticalAlign=top;align=center;perimeter=ellipsePerimeter;outlineConnect=0;outline=end;symbol=general;" vertex="1" parent="252"><mxGeometry x="1120" y="55" width="50" height="50" as="geometry"/></mxCell><mxCell id="256" style="edgeStyle=orthogonalEdgeStyle;rounded=1;orthogonalLoop=1;jettySize=auto;html=1;startArrow=none;startFill=0;" edge="1" parent="252" source="257" target="258"><mxGeometry relative="1" as="geometry"/></mxCell><mxCell id="257" value="Get current rate" style="shape=ext;rounded=1;html=1;whiteSpace=wrap;" vertex="1" parent="252"><mxGeometry x="160" y="40" width="120" height="80" as="geometry"/></mxCell><mxCell id="275" style="edgeStyle=orthogonalEdgeStyle;rounded=0;orthogonalLoop=1;jettySize=auto;html=1;exitX=1;exitY=0.5;exitDx=0;exitDy=0;entryX=0;entryY=0.5;entryDx=0;entryDy=0;startArrow=dash;startFill=0;" edge="1" parent="252" source="258" target="260"><mxGeometry relative="1" as="geometry"/></mxCell><mxCell id="258" value="" style="shape=mxgraph.bpmn.shape;html=1;verticalLabelPosition=bottom;labelBackgroundColor=#ffffff;verticalAlign=top;align=center;perimeter=rhombusPerimeter;background=gateway;outlineConnect=0;outline=none;symbol=exclusiveGw;" vertex="1" parent="252"><mxGeometry x="330" y="55" width="50" height="50" as="geometry"/></mxCell><mxCell id="259" style="edgeStyle=orthogonalEdgeStyle;rounded=1;orthogonalLoop=1;jettySize=auto;html=1;startArrow=none;startFill=0;" edge="1" parent="252" source="260" target="262"><mxGeometry relative="1" as="geometry"/></mxCell><mxCell id="260" value="Set current rate as step rate" style="shape=ext;rounded=1;html=1;whiteSpace=wrap;" vertex="1" parent="252"><mxGeometry x="480" y="40" width="120" height="80" as="geometry"/></mxCell><mxCell id="261" style="edgeStyle=orthogonalEdgeStyle;rounded=1;orthogonalLoop=1;jettySize=auto;html=1;startArrow=none;startFill=0;" edge="1" parent="252" source="262" target="264"><mxGeometry relative="1" as="geometry"/></mxCell><mxCell id="262" value="Calculate sell and buy prices" style="shape=ext;rounded=1;html=1;whiteSpace=wrap;" vertex="1" parent="252"><mxGeometry x="640" y="40" width="120" height="80" as="geometry"/></mxCell><mxCell id="263" style="edgeStyle=orthogonalEdgeStyle;rounded=1;orthogonalLoop=1;jettySize=auto;html=1;startArrow=none;startFill=0;" edge="1" parent="252" source="264" target="266"><mxGeometry relative="1" as="geometry"/></mxCell><mxCell id="264" value="Publish sell and buy orders" style="shape=ext;rounded=1;html=1;whiteSpace=wrap;" vertex="1" parent="252"><mxGeometry x="800" y="40" width="120" height="80" as="geometry"/></mxCell><mxCell id="265" style="edgeStyle=orthogonalEdgeStyle;rounded=1;orthogonalLoop=1;jettySize=auto;html=1;entryX=0;entryY=0.5;entryDx=0;entryDy=0;startArrow=none;startFill=0;" edge="1" parent="252" source="266" target="255"><mxGeometry relative="1" as="geometry"/></mxCell><mxCell id="266" value="Update robot" style="shape=ext;rounded=1;html=1;whiteSpace=wrap;" vertex="1" parent="252"><mxGeometry x="960" y="40" width="120" height="80" as="geometry"/></mxCell><mxCell id="276" value="Current price &amp;gt; Strategy.ceiling&lt;br&gt;OR&lt;br&gt;Current price &amp;lt; Strategy.bottom" style="startArrow=diamondThin;startFill=0;startSize=14;endArrow=block;endFill=1;endSize=6;html=1;edgeStyle=orthogonalEdgeStyle;exitX=0.5;exitY=1;exitDx=0;exitDy=0;entryX=0.5;entryY=1;entryDx=0;entryDy=0;" edge="1" parent="252" source="258" target="255"><mxGeometry width="100" relative="1" as="geometry"><mxPoint x="730" y="250" as="sourcePoint"/><mxPoint x="830" y="250" as="targetPoint"/><Array as="points"><mxPoint x="355" y="160"/><mxPoint x="1145" y="160"/></Array></mxGeometry></mxCell></root></mxGraphModel></diagram></mxfile>